# xmcd
#
# Track frame offsets:
#	150
#	13331
#	33615
#	49739
#	63683
#	78996
#	94037
#	111357
#	123839
#	138247
#	153397
#	173118
#	189772
#	204916
#
# Disc length: 2956 seconds
#
# Revision: 1
# Processed by: cddbd v1.5.2PL0 Copyright (c) Steve Scherf et al.
# Submitted via: audiograbber 1.83.01
#
DISCID=b70b8a0e
DTITLE=Aaron Tippin - In Overdrive
DYEAR=2009
DGENRE=Country
TTITLE0=East Bound and Down
TTITLE1=Truck Drivin' Man
TTITLE2=Drivin' My Life Away
TTITLE3=Six Days On the Road
TTITLE4=Chicken Truck
TTITLE5=The Ballad of Danger Dave and Double Trouble
TTITLE6=Prisoner of the Highway
TTITLE7=Girl On the Billboard
TTITLE8=Long White Line
TTITLE9=Movin' On
TTITLE10=White Knight
TTITLE11=Role On
TTITLE12=Drivin' Fool
TTITLE13=Drill Here, Drill Now
EXTD=
EXTT0=
EXTT1=
EXTT2=
EXTT3=
EXTT4=
EXTT5=
EXTT6=
EXTT7=
EXTT8=
EXTT9=
EXTT10=
EXTT11=
EXTT12=
EXTT13=
PLAYORDER=
